<svg  xmlns="http://www.w3.org/2000/svg" viewBox="0 0 64 64"><defs><style>.cls-3,.cls-5{fill:none}.cls-4{fill:#ff9700}.cls-5{stroke:#000;stroke-linecap:round;stroke-linejoin:round;stroke-width:2px}.cls-8{mix-blend-mode:overlay;fill:#fff}</style></defs><g style="isolation:isolate"><g id="Layer_1" data-name="Layer 1"><g id="Vector"><path d="M60.9 36.81a2.8 2.8 0 0 1-2.37 1.24h-34l4.22-5.22h-8l-4.22 5.22H5.5a2.87 2.87 0 0 1-2.44-1.32 11.49 11.49 0 0 1-1.67-5.92 11 11 0 0 1 .2-2.09 11.29 11.29 0 0 1 11.11-9.23A11.33 11.33 0 0 1 24 8.18a10.86 10.86 0 0 1 2.44.27 11.31 11.31 0 0 1 8.47 8A11 11 0 0 1 38 16a10.93 10.93 0 0 1 7.67 3.13 10 10 0 0 1 1.4 1.64 11 11 0 0 1 15.38 8 12.08 12.08 0 0 1-1.55 8.04z" style="fill:#898989"/><path class="cls-3" d="M25.48 12.19a5.65 5.65 0 0 1 5.2 5.81M34.27 20.23s6.43-3.5 9.74 3.31"/><path class="cls-4" d="m30.82 42.52-3.24 2.3-1.84 1.31-13.66 9.69 7.84-9.69h-9.89l2.92-3.61 3.62-4.46 4.22-5.22h7.97l-4.22 5.22-3.62 4.46h9.9zM53.97 42.52l-3.23 2.3-1.85 1.31-13.64 9.69 7.84-9.69h-9.9l2.91-3.61 3.62-4.46h7.97l-3.61 4.46h9.89z"/></g><g id="Line"><path class="cls-5" d="M60.9 36.81h0a2.8 2.8 0 0 1-2.37 1.24h-34l4.22-5.22h-8l-4.22 5.22H5.5a2.87 2.87 0 0 1-2.44-1.32 11.49 11.49 0 0 1-1.67-5.92 11 11 0 0 1 .2-2.09 11.29 11.29 0 0 1 11.11-9.23A11.33 11.33 0 0 1 24 8.18a10.86 10.86 0 0 1 2.44.27v0a11.31 11.31 0 0 1 8.47 8A11 11 0 0 1 38 16a10.93 10.93 0 0 1 7.67 3.13 10 10 0 0 1 1.4 1.64 11 11 0 0 1 15.38 8 12.08 12.08 0 0 1-1.55 8.04z"/><path class="cls-5" d="M25.48 12.19a5.65 5.65 0 0 1 5.2 5.81M34.27 20.23s6.43-3.5 9.74 3.31M30.82 42.52l-3.24 2.3-1.84 1.31-13.66 9.69 7.84-9.69h-9.89l2.92-3.61 3.62-4.46 4.22-5.22h7.97l-4.22 5.22-3.62 4.46h9.9zM53.97 42.52l-3.23 2.3-1.85 1.31-13.64 9.69 7.84-9.69h-9.9l2.91-3.61 3.62-4.46h7.97l-3.61 4.46h9.89z"/></g><g id="Shadow" style="opacity:.25;mix-blend-mode:multiply"><path d="m12.08 55.82 11.74-8.33 1.1-1.36h-5l-7.84 9.69zM15 46.13l3-3.6 7-9.69h-4.21L13 42.53l-3 3.6zM5.5 38.06h5a2.87 2.87 0 0 1-2.44-1.32 11.49 11.49 0 0 1-1.67-5.92 11 11 0 0 1 .2-2.09 11.29 11.29 0 0 1 11.11-9.24 11.29 11.29 0 0 1 8.79-11A10.86 10.86 0 0 0 24 8.18a11.33 11.33 0 0 0-11.3 11.31 11.29 11.29 0 0 0-11.11 9.24 11 11 0 0 0-.2 2.09 11.49 11.49 0 0 0 1.67 5.92 2.87 2.87 0 0 0 2.44 1.32z"/></g><g id="Highligth" style="mix-blend-mode:overlay"><path class="cls-8" d="M53.97 42.52h-5l-3.23 2.3-1.85 1.31L42 47.47l-6.75 8.35 13.64-9.69 1.85-1.31 3.23-2.3zM39.08 42.52h5l3.61-4.46h-5l-3.61 4.46zM57.49 28.73a12.08 12.08 0 0 1-1.59 8.08 2.8 2.8 0 0 1-2.37 1.24h5a2.8 2.8 0 0 0 2.37-1.24 12.08 12.08 0 0 0 1.59-8.08 11 11 0 0 0-10.85-8.95 10.74 10.74 0 0 0-2.49.3 11 11 0 0 1 8.34 8.65z"/></g></g></g></svg>