<svg xmlns="http://www.w3.org/2000/svg" viewBox="0 0 64 64"><defs><style>.cls-3,.cls-5{fill:none}.cls-4{fill:#0095e8}.cls-5{stroke:#000;stroke-linecap:round;stroke-linejoin:round;stroke-width:2px}.cls-8{mix-blend-mode:overlay;fill:#fff}</style></defs><g style="isolation:isolate"><g id="Layer_1" data-name="Layer 1"><g id="Vector"><path d="M60.68 32.69a2.78 2.78 0 0 1-2.36 1.24H5.7a2.83 2.83 0 0 1-2.41-1.31 11.26 11.26 0 0 1-1.66-5.89 10.74 10.74 0 0 1 .19-2.06 11.2 11.2 0 0 1 11-9.18 11.24 11.24 0 0 1 11.25-11.2 11.29 11.29 0 0 1 2.42.26 11.22 11.22 0 0 1 8.4 7.92A11 11 0 0 1 38 12a10.84 10.84 0 0 1 7.61 3.1A10.32 10.32 0 0 1 47 16.77a11 11 0 0 1 15.26 7.91 12 12 0 0 1-1.58 8.01z" style="fill:#cecece"/><path class="cls-3" d="M25.53 8.27A5.6 5.6 0 0 1 30.69 14M34.25 16.24s6.38-3.47 9.66 3.28"/><path class="cls-4" d="M19.47 56.89a3.29 3.29 0 0 1-3.71 2.76 3.29 3.29 0 0 1-2.18-4.07c.42-1.89 4.24-5.19 4.24-5.19s2.07 4.61 1.65 6.5zM22.48 45.23a3.28 3.28 0 0 1-3.7 2.77 3.29 3.29 0 0 1-2.18-4.08c.42-1.88 4.24-5.19 4.24-5.19s2.06 4.61 1.64 6.5zM33.89 56.89a3.29 3.29 0 0 1-3.7 2.76A3.28 3.28 0 0 1 28 55.58c.42-1.89 4.24-5.19 4.24-5.19s2.07 4.61 1.65 6.5zM36.91 45.23a3.29 3.29 0 0 1-3.7 2.77A3.29 3.29 0 0 1 31 43.92c.42-1.88 4.25-5.19 4.25-5.19s2.08 4.61 1.66 6.5zM47.44 56.89a3.29 3.29 0 0 1-3.7 2.76 3.28 3.28 0 0 1-2.18-4.07c.42-1.89 4.24-5.19 4.24-5.19s2.06 4.61 1.64 6.5zM50.46 45.23a3.29 3.29 0 0 1-3.7 2.77 3.3 3.3 0 0 1-2.19-4.08c.42-1.88 4.25-5.19 4.25-5.19s2.06 4.61 1.64 6.5z"/></g><g id="Line"><path class="cls-5" d="M60.68 32.69s0 0 0 0a2.78 2.78 0 0 1-2.36 1.24H5.7a2.83 2.83 0 0 1-2.41-1.31 11.26 11.26 0 0 1-1.66-5.89 10.74 10.74 0 0 1 .19-2.06 11.2 11.2 0 0 1 11-9.18 11.24 11.24 0 0 1 11.25-11.2 11.29 11.29 0 0 1 2.42.26h0a11.22 11.22 0 0 1 8.4 7.92A11 11 0 0 1 38 12a10.84 10.84 0 0 1 7.61 3.1A10.32 10.32 0 0 1 47 16.77a11 11 0 0 1 15.26 7.91 12 12 0 0 1-1.58 8.01z"/><path class="cls-5" d="M25.53 8.27A5.6 5.6 0 0 1 30.69 14M34.25 16.24s6.38-3.47 9.66 3.28M19.47 56.89a3.29 3.29 0 0 1-3.71 2.76 3.29 3.29 0 0 1-2.18-4.07c.42-1.89 4.24-5.19 4.24-5.19s2.07 4.61 1.65 6.5zM22.48 45.23a3.28 3.28 0 0 1-3.7 2.77 3.29 3.29 0 0 1-2.18-4.08c.42-1.88 4.24-5.19 4.24-5.19s2.06 4.61 1.64 6.5zM33.89 56.89a3.29 3.29 0 0 1-3.7 2.76A3.28 3.28 0 0 1 28 55.58c.42-1.89 4.24-5.19 4.24-5.19s2.07 4.61 1.65 6.5zM36.91 45.23a3.29 3.29 0 0 1-3.7 2.77A3.29 3.29 0 0 1 31 43.92c.42-1.88 4.25-5.19 4.25-5.19s2.08 4.61 1.66 6.5zM47.44 56.89a3.29 3.29 0 0 1-3.7 2.76 3.28 3.28 0 0 1-2.18-4.07c.42-1.89 4.24-5.19 4.24-5.19s2.06 4.61 1.64 6.5zM50.46 45.23a3.29 3.29 0 0 1-3.7 2.77 3.3 3.3 0 0 1-2.19-4.08c.42-1.88 4.25-5.19 4.25-5.19s2.06 4.61 1.64 6.5z"/></g><g id="Shadow" style="opacity:.25;mix-blend-mode:multiply"><path d="M19.71 39.78c-1.16 1.13-2.84 2.92-3.11 4.14A3.29 3.29 0 0 0 18.78 48a2.43 2.43 0 0 0 .93 0zM16.29 51.84c-1.12 1.12-2.47 2.66-2.71 3.74a3.29 3.29 0 0 0 2.18 4.07 2.38 2.38 0 0 0 .53.05zM5.7 33.94h5a2.83 2.83 0 0 1-2.41-1.31 11.26 11.26 0 0 1-1.66-5.89 10.74 10.74 0 0 1 .19-2.06 11.2 11.2 0 0 1 11-9.18 11.24 11.24 0 0 1 8.73-10.92h-.06a11.29 11.29 0 0 0-2.42-.26A11.24 11.24 0 0 0 12.84 15.5a11.2 11.2 0 0 0-11 9.18 10.74 10.74 0 0 0-.19 2.06 11.26 11.26 0 0 0 1.66 5.89 2.83 2.83 0 0 0 2.39 1.31z"/></g><g id="Highligth" style="mix-blend-mode:overlay"><path class="cls-8" d="M45.8 50.39s-.89.77-1.86 1.78h1.17v7.41a3.58 3.58 0 0 0 2.33-2.69c.42-1.89-1.64-6.5-1.64-6.5zM48.82 38.73s-.34.29-.82.75V48a3.57 3.57 0 0 0 2.46-2.74c.42-1.92-1.64-6.53-1.64-6.53zM51.5 15.8a10.85 10.85 0 0 0-2.51.3 10.92 10.92 0 0 1 8.26 8.58 12 12 0 0 1-1.57 8 2.78 2.78 0 0 1-2.36 1.24h5a2.78 2.78 0 0 0 2.36-1.24 12 12 0 0 0 1.57-8A10.94 10.94 0 0 0 51.5 15.8z"/></g></g></g></svg>